<svg xmlns="http://www.w3.org/2000/svg" width="100" height="100" fill="none"><defs><clipPath id="a"><path fill="#fff" fill-opacity="0" d="M0 0h100v100H0z"/></clipPath></defs><path fill="none" d="M0 0h100v100H0z"/><g fill="#FFF" clip-path="url(#a)"><path d="M86.25 36.42c-20.08-20.09-52.76-20.09-72.84 0L0 49.83l13.74 13.74c10.04 10.05 23.23 15.07 36.42 15.07 13.19 0 26.38-5.02 36.42-15.07L100 50.16 86.25 36.42Zm-2.06 24.77c-18.76 18.76-49.29 18.76-68.06 0L4.77 49.83 15.8 38.8c18.76-18.76 49.29-18.76 68.06 0l11.36 11.36-11.03 11.03Z"/><path d="M48.26 36.43c-6.52 0-11.83 5.3-11.83 11.83 0 .93.76 1.68 1.69 1.68.94 0 1.69-.75 1.69-1.68 0-4.66 3.79-8.45 8.45-8.45.93 0 1.69-.76 1.69-1.69 0-.93-.76-1.69-1.69-1.69Z"/><path d="M49.95 27.99c-12.11 0-21.96 9.85-21.96 21.95 0 12.11 9.85 21.96 21.96 21.96 12.11 0 21.96-9.85 21.96-21.96 0-12.1-9.85-21.95-21.96-21.95Zm0 40.54c-10.25 0-18.58-8.34-18.58-18.59 0-10.24 8.33-18.58 18.58-18.58 10.24 0 18.58 8.34 18.58 18.58 0 10.25-8.34 18.59-18.58 18.59Z"/></g></svg>