<svg xmlns="http://www.w3.org/2000/svg" width="43.75" height="40" fill="none"><defs><clipPath id="a"><path fill="#fff" fill-opacity="0" d="M0 0h43.75v40H0z"/></clipPath></defs><path fill="none" d="M0 0h43.75v40H0z"/><g clip-path="url(#a)"><path fill="#FFF" d="M43.51 29.2c-.05-.11-.1-.2-.15-.27-.75-1.25-2.2-2.78-4.35-4.6l-.04-.04-.02-.02-.03-.02h-.02c-.97-.85-1.59-1.42-1.84-1.71-.48-.55-.58-1.12-.32-1.69.18-.43.86-1.34 2.05-2.72.62-.74 1.11-1.33 1.48-1.77 2.62-3.2 3.76-5.24 3.41-6.13l-.13-.21c-.09-.12-.33-.23-.71-.34-.38-.1-.86-.12-1.46-.05l-6.56.04c-.1-.03-.25-.03-.45.01l-.3.06-.11.06-.09.06c-.08.04-.16.11-.25.22-.09.1-.17.22-.23.36-.72 1.68-1.53 3.24-2.44 4.69-.56.86-1.08 1.6-1.55 2.24-.47.63-.86 1.09-1.18 1.39-.32.3-.61.54-.87.72-.26.18-.45.26-.59.23-.14-.03-.27-.06-.39-.08-.21-.13-.38-.3-.51-.51-.13-.22-.22-.49-.26-.82-.05-.32-.07-.6-.08-.84-.01-.24-.01-.57.01-1 .02-.43.02-.72.02-.88 0-.52.01-1.1.04-1.71.02-.62.04-1.11.05-1.47.02-.36.03-.74.03-1.15 0-.4-.03-.72-.08-.94a3.81 3.81 0 0 0-.24-.67c-.11-.22-.26-.38-.47-.5-.2-.12-.46-.21-.76-.28-.81-.17-1.83-.26-3.08-.27-2.82-.03-4.64.14-5.44.5-.32.15-.61.36-.87.62-.27.31-.31.47-.11.5.91.13 1.56.43 1.94.9l.13.25c.11.18.21.5.32.96.11.45.18.96.21 1.52.07 1.01.07 1.88 0 2.6-.08.72-.15 1.28-.22 1.69-.07.4-.17.72-.31.97-.13.25-.23.41-.27.46-.05.06-.09.09-.12.11-.19.07-.4.1-.61.1-.21 0-.47-.1-.77-.29-.31-.2-.62-.46-.95-.8-.33-.34-.69-.82-1.1-1.43-.41-.61-.84-1.33-1.28-2.17l-.36-.6c-.23-.39-.54-.95-.94-1.7-.39-.74-.74-1.46-1.05-2.15-.12-.29-.3-.52-.54-.67l-.12-.06c-.07-.06-.19-.12-.36-.18-.17-.06-.34-.11-.53-.13l-6.24.04c-.63 0-1.07.13-1.3.39l-.09.13c-.04.07-.06.18-.06.33 0 .15.04.34.13.56.91 1.96 1.9 3.85 2.97 5.67 1.07 1.82 2.01 3.28 2.79 4.39.79 1.11 1.6 2.16 2.42 3.15.82.98 1.36 1.62 1.63 1.89.26.28.47.49.62.63l.57.5c.37.33.9.73 1.61 1.2.71.46 1.49.92 2.35 1.37.85.45 1.85.82 2.99 1.1 1.14.29 2.25.4 3.33.35h2.62c.53-.04.93-.2 1.2-.46l.09-.11c.07-.08.12-.21.18-.38.05-.17.08-.36.08-.57-.02-.6.03-1.14.14-1.62.12-.48.25-.84.39-1.08.15-.24.31-.45.49-.61.18-.17.31-.27.39-.31.07-.03.13-.05.18-.07.36-.11.79 0 1.29.32.49.33.95.73 1.39 1.21.43.48.95 1.02 1.56 1.62.6.59 1.14 1.04 1.59 1.33l.46.25c.3.17.7.32 1.18.46.49.14.91.17 1.28.1l5.83-.08c.58 0 1.02-.09 1.34-.26.32-.18.51-.37.57-.57.06-.21.07-.45.01-.71-.05-.27-.1-.45-.16-.55Z"/></g></svg>