<svg xmlns="http://www.w3.org/2000/svg" width="50" height="50" fill="none"><path fill="#FFF" d="M49.16 0h-37.5c-.46 0-.83.37-.83.83v12.5h1.67V1.66h35.83v45.83c.01.44-.33.81-.77.84-.07 0-.14-.01-.21-.01-.15 0-.3-.01-.44-.02-.02 0-.03 0-.04-.01a5.829 5.829 0 0 1-5.17-5.16c0-.02-.01-.03-.01-.04-.02-.2-.03-.4-.03-.6v-1.66c0-.46-.37-.84-.83-.84H12.5V25h-1.67v14.99H4.16c-.46 0-.83.38-.83.84v1.66c0 4.15 3.36 7.5 7.5 7.5h36.75a2.463 2.463 0 0 0 2.41-2.5V.83c0-.46-.37-.83-.83-.83ZM10.83 48.33A5.838 5.838 0 0 1 5 42.49v-.83h35v.83c0 .28.01.55.04.83l.03.21c.03.2.07.4.11.6.01.07.03.14.05.21.05.2.11.4.18.59.02.06.04.11.06.17.07.2.16.41.25.61l.06.12c.1.21.22.41.34.61.02.03.04.06.05.09.14.21.29.41.44.61l.03.04c.18.23.38.44.58.65.18.18.37.35.56.5H10.83Z"/><path fill="#FFF" d="M27.49 23.33a.8.8 0 0 0 .59-.25l3.34-3.33c.32-.32.32-.85 0-1.18l-3.34-3.33a.791.791 0 0 0-.59-.24H4.16C1.86 15 0 16.86 0 19.16s1.86 4.17 4.16 4.17h23.33Zm-.21-6.54 2.37 2.37-2.37 2.37-.59-2.37.59-2.37Zm-20.62-.13h18.93l-.41 1.67H8.33V20h16.85l.41 1.66H6.66v-5Zm-5 2.5a2.5 2.5 0 0 1 2.5-2.5H5v5h-.84a2.5 2.5 0 0 1-2.5-2.5ZM19.16 35.83h25c.46 0 .83-.37.83-.84V10a.83.83 0 0 0-.83-.84c-.22 0-.43.09-.59.25l-25 25a.833.833 0 0 0 .59 1.42Zm24.17-23.82v2.15h-1.67v1.67h1.67v1.67h-1.67v1.66h1.67v1.67h-1.67v1.67h1.67v1.66h-1.67v1.67h1.67v1.67h-1.67v1.66h1.67v1.67h-1.67v1.66h1.67v1.67h-1.67v-1.67h-1.67v1.67h-1.66v-1.67h-1.67v1.67H35v-1.67h-1.67v1.67h-1.67v-1.67H30v1.67h-1.67v-1.67h-1.67v1.67H25v-1.67h-1.67v1.67h-2.16l22.16-22.15Z"/><path fill="#FFF" d="M31.23 30.83h7.93c.46 0 .84-.37.84-.84v-7.92a.852.852 0 0 0-.84-.84c-.22 0-.43.09-.59.25l-7.93 7.93a.833.833 0 0 0 .59 1.42Zm7.1-6.75v5.08h-5.08l5.08-5.08Z"/><path fill="#FFF" fill-rule="evenodd" d="M21.66 5h16.67v1.66H21.66V5ZM19.16 8.33h21.67v1.66H19.16V8.33ZM14.16 25.83h5v1.66h-5v-1.66ZM14.16 29.16h3.33v1.67h-3.33v-1.67Z"/></svg>