<svg xmlns="http://www.w3.org/2000/svg" width="100" height="100" fill="none"><defs><clipPath id="a"><path fill="#fff" fill-opacity="0" d="M0 0h100v100H0z"/></clipPath></defs><path fill="none" d="M0 0h100v100H0z"/><g clip-path="url(#a)"><path fill="#FFF" d="M50 0C22.38 0 0 22.38 0 50c0 27.61 22.38 50 50 50 27.61 0 50-22.39 50-50 0-27.62-22.39-50-50-50Zm17.28 52.65-25 15.62a3.106 3.106 0 0 1-3.18.08c-.99-.55-1.6-1.59-1.6-2.73V34.37a3.124 3.124 0 0 1 4.78-2.65l25 15.62A3.16 3.16 0 0 1 68.75 50c0 1.07-.56 2.07-1.47 2.65Z"/></g></svg>